<svg xmlns="http://www.w3.org/2000/svg" width="20" height="20" viewBox="0 0 20 20" fill="none"><g transform="translate(3.33 1.67)">
<g id="elements">
<path id="Vector (Stroke)" d="M4.85102 10.2713C5.27914 10.2713 5.62621 10.6184 5.62621 11.0465C5.62621 11.4746 5.27914 11.8217 4.85102 11.8217H4.8442C4.41608 11.8217 4.06901 11.4746 4.06901 11.0465C4.06901 10.6184 4.41608 10.2713 4.8442 10.2713H4.85102ZM8.72017 10.2713C9.1483 10.2713 9.49537 10.6184 9.49537 11.0465C9.49537 11.4746 9.1483 11.8217 8.72017 11.8217H8.71336C8.28523 11.8217 7.93817 11.4746 7.93817 11.0465C7.93817 10.6184 8.28523 10.2713 8.71336 10.2713H8.72017Z" fill="#617797"/>
<path id="Vector (Stroke)_2" d="M12.4031 11.0465C12.4031 10.2038 12.3137 9.36792 12.201 8.53092C12.0627 7.50522 11.2131 6.71239 10.1986 6.66561C9.10965 6.61554 8.00276 6.58915 6.78295 6.58915C5.56314 6.58915 4.45624 6.61554 3.36725 6.66561C2.35275 6.71239 1.50316 7.50522 1.36492 8.53092C1.25222 9.36792 1.16279 10.2038 1.16279 11.0465C1.16279 11.8892 1.25222 12.7251 1.36492 13.5621C1.50316 14.5878 2.35275 15.3806 3.36725 15.4274C4.45624 15.4775 5.56314 15.5039 6.78295 15.5039C8.00276 15.5039 9.10965 15.4775 10.1986 15.4274C11.2131 15.3806 12.0627 14.5878 12.201 13.5621C12.3137 12.7251 12.4031 11.8892 12.4031 11.0465ZM13.5659 11.0465C13.5659 11.9674 13.468 12.8636 13.3532 13.7165C13.1426 15.2801 11.847 16.5161 10.2516 16.5894C9.14437 16.6403 8.01998 16.6667 6.78295 16.6667C5.54592 16.6667 4.42152 16.6404 3.31426 16.5894C1.71886 16.5161 0.423243 15.2801 0.212724 13.7165C0.0978971 12.8636 1.04817e-07 11.9674 0 11.0465C0 10.1256 0.0978972 9.22938 0.212724 8.37648C0.423243 6.81291 1.71886 5.57692 3.31426 5.50357C4.42152 5.45267 5.54592 5.42636 6.78295 5.42636C8.01997 5.42636 9.14437 5.45267 10.2516 5.50357C11.847 5.57692 13.1426 6.81291 13.3532 8.37648C13.468 9.22938 13.5659 10.1256 13.5659 11.0465Z" fill="#617797"/>
<path id="Vector 6658 (Stroke)" d="M9.68833 6.00775V4.06977C9.68833 2.46429 8.38683 1.16279 6.78136 1.16279C5.17588 1.16279 3.87438 2.46429 3.87438 4.06977V6.00775C3.87438 6.32885 3.61408 6.58915 3.29298 6.58915C2.97189 6.58915 2.71159 6.32885 2.71159 6.00775V4.06977C2.71159 1.8221 4.53369 0 6.78136 0C9.02903 0 10.8511 1.8221 10.8511 4.06977V6.00775C10.8511 6.32885 10.5908 6.58915 10.2697 6.58915C9.94863 6.58915 9.68833 6.32885 9.68833 6.00775Z" fill="#617797"/>
</g>
</g></svg>
